<svg width="64" height="64" xmlns="http://www.w3.org/2000/svg" fill="none">

 <g>
  <title>Layer 1</title>
  <path id="svg_1" d="m0,0l64,0l0,48l-16,16l-48,0l0,-64z" fill="#111"/>
  <path transform="rotate(178.556 32.9995 32.0006)" id="svg_2" d="m26.669,45.48l7.02,-17.717l0.003,0l9.503,17.805a0.822,0.822 0 0 0 1.49,-0.09l3.315,-8.519a0.808,0.808 0 0 0 -0.04,-0.661l-7.815,-14.818a6.56,6.56 0 0 0 -5.809,-3.48l-4.496,0a0.824,0.824 0 0 0 -0.382,0.094a0.806,0.806 0 0 0 -0.342,1.094l3.55,6.65l-3.574,8.834l-6.962,-13.191a6.56,6.56 0 0 0 -5.808,-3.481l-4.498,0a0.855,0.855 0 0 0 -0.388,0.094a0.808,0.808 0 0 0 -0.343,1.094l14.087,26.381a0.824,0.824 0 0 0 1.49,-0.089l-0.001,0zm25.29,-18.978a0.808,0.808 0 0 0 0.379,-0.43l2.611,-6.98a0.807,0.807 0 0 0 -0.485,-1.04a0.828,0.828 0 0 0 -0.283,-0.05l-6.432,0a0.813,0.813 0 0 0 -0.72,1.195l3.82,6.977a0.822,0.822 0 0 0 1.11,0.328z" fill="#fff"/>
 </g>
</svg>